<svg id="Layer_1" height="512" viewBox="0 0 512 512" width="512" xmlns="http://www.w3.org/2000/svg" data-name="Layer 1"><path d="m501 256c0 1.46-.01 2.92-.04 4.37a55.1 55.1 0 1 1 -16.22-92.31 244.206 244.206 0 0 1 16.26 87.94z" fill="#7f8a98"/><path d="m464.25 274.37a54.909 54.909 0 0 0 36.71-14c-2.33 133.29-111.11 240.63-244.96 240.63a244.992 244.992 0 0 1 -218.95-134.96l.17-.08a55.124 55.124 0 1 0 5.64-109.96 54.884 54.884 0 0 0 -31.65 9.98q-.2-4.965-.2-9.98c0-127.39 97.23-232.07 221.52-243.89l.05.53a52.675 52.675 0 1 0 104.25 12.01 245.7 245.7 0 0 1 147.91 143.41 55.128 55.128 0 1 0 -20.49 106.31z" fill="#dde2f2"/><path d="m336.83 24.65a52.67 52.67 0 1 1 -104.25-12.01l-.05-.53q11.58-1.095 23.47-1.11a244.685 244.685 0 0 1 80.83 13.65z" fill="#7f8a98"/><path d="m42.86 256a55.125 55.125 0 1 1 -5.64 109.96l-.17.08a243.759 243.759 0 0 1 -25.84-100.06 54.884 54.884 0 0 1 31.65-9.98z" fill="#c3cbdd"/><circle cx="363.8" cy="411.57" fill="#c3cbdd" r="24.5"/><path d="m274.38 215.58a35.52 35.52 0 1 1 -35.53 35.52 35.516 35.516 0 0 1 35.53-35.52z" fill="#848b9b"/><circle cx="154.33" cy="139.63" fill="#c3cbdd" r="24.5"/><circle cx="181.28" cy="403" fill="#6d7486" r="12.25"/><path d="m41.01 256c0-116.71 81.616-214.344 190.877-238.986.174-1.475.4-2.937.693-4.374l-.05-.53c-124.29 11.82-221.52 116.5-221.52 243.89q0 5.01.2 9.98a54.857 54.857 0 0 1 29.8-9.944z" fill="#848b9b"/><path d="m67.05 366.04-2.14-4.392-22.05 4.6a55.463 55.463 0 0 1 -5.64-.29l-.17.08a244.992 244.992 0 0 0 218.95 134.962c5.013 0 9.986-.169 14.924-.466a245.054 245.054 0 0 1 -203.874-134.494z" fill="#848b9b"/><path d="m41.21 265.98-.2-9.95a54.862 54.862 0 0 0 -29.8 9.95 243.759 243.759 0 0 0 25.84 100.06l.17-.08a55.463 55.463 0 0 0 5.64.29 54.9 54.9 0 0 0 22.05-4.6 243.784 243.784 0 0 1 -23.7-95.67z" fill="#5f6875"/></svg>