<?xml version="1.0" encoding="UTF-8" standalone="no"?>
<!-- Created with Inkscape (http://www.inkscape.org/) -->

<svg
   xmlns:dc="http://purl.org/dc/elements/1.1/"
   xmlns:cc="http://creativecommons.org/ns#"
   xmlns:rdf="http://www.w3.org/1999/02/22-rdf-syntax-ns#"
   xmlns:svg="http://www.w3.org/2000/svg"
   xmlns="http://www.w3.org/2000/svg"
   xmlns:sodipodi="http://sodipodi.sourceforge.net/DTD/sodipodi-0.dtd"
   xmlns:inkscape="http://www.inkscape.org/namespaces/inkscape"
   width="228"
   height="84"
   viewBox="0 0 60.324998 22.225001"
   version="1.1"
   id="svg883"
   inkscape:version="0.92.4 (5da689c313, 2019-01-14)"
   sodipodi:docname="panel.svg">
  <defs
     id="defs877" />
  <sodipodi:namedview
     id="base"
     pagecolor="#ffffff"
     bordercolor="#666666"
     borderopacity="1.0"
     inkscape:pageopacity="0.0"
     inkscape:pageshadow="2"
     inkscape:zoom="7.9195959"
     inkscape:cx="188.51181"
     inkscape:cy="10.075819"
     inkscape:document-units="px"
     inkscape:current-layer="layer1"
     showgrid="false"
     units="px"
     inkscape:window-width="1594"
     inkscape:window-height="894"
     inkscape:window-x="0"
     inkscape:window-y="0"
     inkscape:window-maximized="1" />
  <metadata
     id="metadata880">
    <rdf:RDF>
      <cc:Work
         rdf:about="">
        <dc:format>image/svg+xml</dc:format>
        <dc:type
           rdf:resource="http://purl.org/dc/dcmitype/StillImage" />
        <dc:title />
      </cc:Work>
    </rdf:RDF>
  </metadata>
  <g
     inkscape:label="Layer 1"
     inkscape:groupmode="layer"
     id="layer1"
     transform="translate(0,-274.77498)">
    <rect
       style="opacity:1;fill:#181818;fill-opacity:1;stroke:#282c34;stroke-width:0.52916664;stroke-linecap:butt;stroke-linejoin:miter;stroke-miterlimit:4;stroke-dasharray:none;stroke-opacity:1"
       id="rect1447"
       width="59.795834"
       height="21.695833"
       x="0.26458332"
       y="275.03958"
       rx="0"
       ry="0" />
    <circle
       style="opacity:1;fill:#abb2bf;fill-opacity:1;stroke:none;stroke-width:0.52916664;stroke-linecap:butt;stroke-linejoin:miter;stroke-miterlimit:4;stroke-dasharray:none;stroke-opacity:1"
       id="path1500"
       cx="2.6458333"
       cy="277.42081"
       r="0.52916664" />
    <circle
       r="0.52916664"
       cy="294.35416"
       cx="2.6458333"
       id="circle1502"
       style="opacity:1;fill:#abb2bf;fill-opacity:1;stroke:none;stroke-width:0.52916664;stroke-linecap:butt;stroke-linejoin:miter;stroke-miterlimit:4;stroke-dasharray:none;stroke-opacity:1" />
    <circle
       style="opacity:1;fill:#abb2bf;fill-opacity:1;stroke:none;stroke-width:0.52916664;stroke-linecap:butt;stroke-linejoin:miter;stroke-miterlimit:4;stroke-dasharray:none;stroke-opacity:1"
       id="circle1504"
       cx="57.679169"
       cy="294.35416"
       r="0.52916664" />
    <circle
       r="0.52916664"
       cy="277.42081"
       cx="57.679169"
       id="circle1506"
       style="opacity:1;fill:#abb2bf;fill-opacity:1;stroke:none;stroke-width:0.52916664;stroke-linecap:butt;stroke-linejoin:miter;stroke-miterlimit:4;stroke-dasharray:none;stroke-opacity:1" />
    <g
       id="g1498"
       transform="translate(2.6458334,2.1166634)"
       inkscape:label="meters"
       style="display:none">
      <g
         id="g1166"
         inkscape:label="meter"
         transform="matrix(0.5033708,0,0,0.5033708,-65.069666,170.89517)"
         style="stroke-width:1.98660707">
        <path
           inkscape:connector-curvature="0"
           id="path821"
           d="m 162.90774,224.23956 a 16.819941,16.819941 0 0 1 -16.81994,16.81994 16.819941,16.819941 0 0 1 -16.81994,-16.81994 16.819941,16.819941 0 0 1 16.81994,-16.81994 16.819941,16.819941 0 0 1 16.81994,16.81994 z"
           style="opacity:1;fill:#000000;fill-opacity:1;stroke:none;stroke-width:1.05124629;stroke-linecap:round;stroke-linejoin:round;stroke-miterlimit:4;stroke-dasharray:none;stroke-opacity:1" />
        <path
           sodipodi:nodetypes="csc"
           inkscape:connector-curvature="0"
           id="path823"
           d="m 133.14211,223.5781 c 0,-7.14971 5.79598,-12.94569 12.94569,-12.94569 7.1497,0 12.94568,5.79599 12.94568,12.94569"
           style="opacity:1;fill:#abb2bf;fill-opacity:1;stroke:none;stroke-width:1.05124629;stroke-linecap:round;stroke-linejoin:round;stroke-miterlimit:4;stroke-dasharray:none;stroke-opacity:1" />
        <path
           inkscape:connector-curvature="0"
           id="path826"
           d="m 150.34003,224.23956 a 4.2522321,4.2522321 0 0 1 -4.25223,4.25224 4.2522321,4.2522321 0 0 1 -4.25223,-4.25224 4.2522321,4.2522321 0 0 1 4.25223,-4.25223 4.2522321,4.2522321 0 0 1 4.25223,4.25223 z"
           style="opacity:1;fill:#000000;fill-opacity:1;stroke:none;stroke-width:1.05124629;stroke-linecap:round;stroke-linejoin:round;stroke-miterlimit:4;stroke-dasharray:none;stroke-opacity:1" />
        <circle
           r="2.2678573"
           cy="224.23956"
           cx="146.0878"
           id="path832"
           style="opacity:1;fill:#c678dd;fill-opacity:1;stroke:none;stroke-width:1.05124629;stroke-linecap:round;stroke-linejoin:round;stroke-miterlimit:4;stroke-dasharray:none;stroke-opacity:1" />
      </g>
      <g
         style="stroke-width:1.98660707"
         transform="matrix(0.5033708,0,0,0.5033708,-46.019666,170.89517)"
         inkscape:label="meter"
         id="g1471">
        <path
           style="opacity:1;fill:#000000;fill-opacity:1;stroke:none;stroke-width:1.05124629;stroke-linecap:round;stroke-linejoin:round;stroke-miterlimit:4;stroke-dasharray:none;stroke-opacity:1"
           d="m 162.90774,224.23956 a 16.819941,16.819941 0 0 1 -16.81994,16.81994 16.819941,16.819941 0 0 1 -16.81994,-16.81994 16.819941,16.819941 0 0 1 16.81994,-16.81994 16.819941,16.819941 0 0 1 16.81994,16.81994 z"
           id="path1463"
           inkscape:connector-curvature="0" />
        <path
           style="opacity:1;fill:#abb2bf;fill-opacity:1;stroke:none;stroke-width:1.05124629;stroke-linecap:round;stroke-linejoin:round;stroke-miterlimit:4;stroke-dasharray:none;stroke-opacity:1"
           d="m 133.14211,223.5781 c 0,-7.14971 5.79598,-12.94569 12.94569,-12.94569 7.1497,0 12.94568,5.79599 12.94568,12.94569"
           id="path1465"
           inkscape:connector-curvature="0"
           sodipodi:nodetypes="csc" />
        <path
           style="opacity:1;fill:#000000;fill-opacity:1;stroke:none;stroke-width:1.05124629;stroke-linecap:round;stroke-linejoin:round;stroke-miterlimit:4;stroke-dasharray:none;stroke-opacity:1"
           d="m 150.34003,224.23956 a 4.2522321,4.2522321 0 0 1 -4.25223,4.25224 4.2522321,4.2522321 0 0 1 -4.25223,-4.25224 4.2522321,4.2522321 0 0 1 4.25223,-4.25223 4.2522321,4.2522321 0 0 1 4.25223,4.25223 z"
           id="path1467"
           inkscape:connector-curvature="0" />
        <circle
           style="opacity:1;fill:#c678dd;fill-opacity:1;stroke:none;stroke-width:1.05124629;stroke-linecap:round;stroke-linejoin:round;stroke-miterlimit:4;stroke-dasharray:none;stroke-opacity:1"
           id="circle1469"
           cx="146.0878"
           cy="224.23956"
           r="2.2678573" />
      </g>
      <g
         id="g1481"
         inkscape:label="meter"
         transform="matrix(0.5033708,0,0,0.5033708,-26.969666,170.89517)"
         style="stroke-width:1.98660707">
        <path
           inkscape:connector-curvature="0"
           id="path1473"
           d="m 162.90774,224.23956 a 16.819941,16.819941 0 0 1 -16.81994,16.81994 16.819941,16.819941 0 0 1 -16.81994,-16.81994 16.819941,16.819941 0 0 1 16.81994,-16.81994 16.819941,16.819941 0 0 1 16.81994,16.81994 z"
           style="opacity:1;fill:#000000;fill-opacity:1;stroke:none;stroke-width:1.05124629;stroke-linecap:round;stroke-linejoin:round;stroke-miterlimit:4;stroke-dasharray:none;stroke-opacity:1" />
        <path
           sodipodi:nodetypes="csc"
           inkscape:connector-curvature="0"
           id="path1475"
           d="m 133.14211,223.5781 c 0,-7.14971 5.79598,-12.94569 12.94569,-12.94569 7.1497,0 12.94568,5.79599 12.94568,12.94569"
           style="opacity:1;fill:#abb2bf;fill-opacity:1;stroke:none;stroke-width:1.05124629;stroke-linecap:round;stroke-linejoin:round;stroke-miterlimit:4;stroke-dasharray:none;stroke-opacity:1" />
        <path
           inkscape:connector-curvature="0"
           id="path1477"
           d="m 150.34003,224.23956 a 4.2522321,4.2522321 0 0 1 -4.25223,4.25224 4.2522321,4.2522321 0 0 1 -4.25223,-4.25224 4.2522321,4.2522321 0 0 1 4.25223,-4.25223 4.2522321,4.2522321 0 0 1 4.25223,4.25223 z"
           style="opacity:1;fill:#000000;fill-opacity:1;stroke:none;stroke-width:1.05124629;stroke-linecap:round;stroke-linejoin:round;stroke-miterlimit:4;stroke-dasharray:none;stroke-opacity:1" />
        <circle
           r="2.2678573"
           cy="224.23956"
           cx="146.0878"
           id="circle1479"
           style="opacity:1;fill:#c678dd;fill-opacity:1;stroke:none;stroke-width:1.05124629;stroke-linecap:round;stroke-linejoin:round;stroke-miterlimit:4;stroke-dasharray:none;stroke-opacity:1" />
      </g>
    </g>
  </g>
</svg>
