<?xml version="1.0" encoding="UTF-8" standalone="no"?>
<svg
   xmlns:dc="http://purl.org/dc/elements/1.1/"
   xmlns:cc="http://creativecommons.org/ns#"
   xmlns:rdf="http://www.w3.org/1999/02/22-rdf-syntax-ns#"
   xmlns:svg="http://www.w3.org/2000/svg"
   xmlns="http://www.w3.org/2000/svg"
   xmlns:sodipodi="http://sodipodi.sourceforge.net/DTD/sodipodi-0.dtd"
   xmlns:inkscape="http://www.inkscape.org/namespaces/inkscape"
   id="Layer_1"
   height="512"
   viewBox="0 0 512 512"
   width="512"
   data-name="Layer 1"
   version="1.1"
   sodipodi:docname="moon.svg"
   inkscape:version="0.92.4 (5da689c313, 2019-01-14)">
  <metadata
     id="metadata2839">
    <rdf:RDF>
      <cc:Work
         rdf:about="">
        <dc:format>image/svg+xml</dc:format>
        <dc:type
           rdf:resource="http://purl.org/dc/dcmitype/StillImage" />
      </cc:Work>
    </rdf:RDF>
  </metadata>
  <defs
     id="defs2837" />
  <sodipodi:namedview
     pagecolor="#ffffff"
     bordercolor="#666666"
     borderopacity="1"
     objecttolerance="10"
     gridtolerance="10"
     guidetolerance="10"
     inkscape:pageopacity="0"
     inkscape:pageshadow="2"
     inkscape:window-width="1499"
     inkscape:window-height="874"
     id="namedview2835"
     showgrid="false"
     inkscape:zoom="0.921875"
     inkscape:cx="246.18629"
     inkscape:cy="289.73293"
     inkscape:window-x="10"
     inkscape:window-y="10"
     inkscape:window-maximized="0"
     inkscape:current-layer="Layer_1" />
  <g
     id="g3395"
     inkscape:label="moon">
    <path
       id="path2812"
       d="m 501,256 c 0,1.46 -0.01,2.92 -0.04,4.37 A 55.1,55.1 0 1 1 484.74,168.06 244.206,244.206 0 0 1 501,256 Z"
       inkscape:connector-curvature="0"
       style="fill:#7f8a98" />
    <path
       id="path2814"
       d="m 464.25,274.37 a 54.909,54.909 0 0 0 36.71,-14 C 498.63,393.66 389.85,501 256,501 A 244.992,244.992 0 0 1 37.05,366.04 l 0.17,-0.08 A 55.124,55.124 0 1 0 42.86,256 54.884,54.884 0 0 0 11.21,265.98 q -0.2,-4.965 -0.2,-9.98 c 0,-127.39 97.23,-232.07 221.52,-243.89 l 0.05,0.53 a 52.675,52.675 0 1 0 104.25,12.01 245.7,245.7 0 0 1 147.91,143.41 55.128,55.128 0 1 0 -20.49,106.31 z"
       inkscape:connector-curvature="0"
       style="fill:#dde2f2" />
    <path
       id="path2816"
       d="M 336.83,24.65 A 52.67,52.67 0 1 1 232.58,12.64 l -0.05,-0.53 Q 244.11,11.015 256,11 a 244.685,244.685 0 0 1 80.83,13.65 z"
       inkscape:connector-curvature="0"
       style="fill:#7f8a98" />
    <path
       id="path2818"
       d="m 42.86,256 a 55.125,55.125 0 1 1 -5.64,109.96 l -0.17,0.08 A 243.759,243.759 0 0 1 11.21,265.98 54.884,54.884 0 0 1 42.86,256 Z"
       inkscape:connector-curvature="0"
       style="fill:#c3cbdd" />
    <circle
       id="circle2820"
       r="24.5"
       cy="411.57001"
       cx="363.79999"
       style="fill:#c3cbdd" />
    <path
       id="path2822"
       d="m 274.38,215.58 a 35.52,35.52 0 1 1 -35.53,35.52 35.516,35.516 0 0 1 35.53,-35.52 z"
       inkscape:connector-curvature="0"
       style="fill:#848b9b" />
    <circle
       id="circle2824"
       r="24.5"
       cy="139.63"
       cx="154.33"
       style="fill:#c3cbdd" />
    <circle
       id="circle2826"
       r="12.25"
       cy="403"
       cx="181.28"
       style="fill:#6d7486" />
    <path
       id="path2828"
       d="m 41.01,256 c 0,-116.71 81.616,-214.344 190.877,-238.986 0.174,-1.475 0.4,-2.937 0.693,-4.374 l -0.05,-0.53 C 108.24,23.93 11.01,128.61 11.01,256 q 0,5.01 0.2,9.98 a 54.857,54.857 0 0 1 29.8,-9.944 z"
       inkscape:connector-curvature="0"
       style="fill:#848b9b" />
    <path
       id="path2830"
       d="m 67.05,366.04 -2.14,-4.392 -22.05,4.6 a 55.463,55.463 0 0 1 -5.64,-0.29 l -0.17,0.08 A 244.992,244.992 0 0 0 256,501 c 5.013,0 9.986,-0.169 14.924,-0.466 A 245.054,245.054 0 0 1 67.05,366.04 Z"
       inkscape:connector-curvature="0"
       style="fill:#848b9b" />
    <path
       id="path2832"
       d="m 41.21,265.98 -0.2,-9.95 a 54.862,54.862 0 0 0 -29.8,9.95 243.759,243.759 0 0 0 25.84,100.06 l 0.17,-0.08 a 55.463,55.463 0 0 0 5.64,0.29 54.9,54.9 0 0 0 22.05,-4.6 243.784,243.784 0 0 1 -23.7,-95.67 z"
       inkscape:connector-curvature="0"
       style="fill:#5f6875" />
  </g>
</svg>
