<?xml version="1.0" encoding="UTF-8" standalone="no"?>
<!-- Created with Inkscape (http://www.inkscape.org/) -->

<svg
   xmlns:dc="http://purl.org/dc/elements/1.1/"
   xmlns:cc="http://creativecommons.org/ns#"
   xmlns:rdf="http://www.w3.org/1999/02/22-rdf-syntax-ns#"
   xmlns:svg="http://www.w3.org/2000/svg"
   xmlns="http://www.w3.org/2000/svg"
   xmlns:sodipodi="http://sodipodi.sourceforge.net/DTD/sodipodi-0.dtd"
   xmlns:inkscape="http://www.inkscape.org/namespaces/inkscape"
   width="64"
   height="64"
   viewBox="0 0 16.933333 16.933334"
   version="1.1"
   id="svg8"
   inkscape:version="0.92.4 (5da689c313, 2019-01-14)"
   sodipodi:docname="lock.svg">
  <defs
     id="defs2">
    <clipPath
       clipPathUnits="userSpaceOnUse"
       id="clipPath856">
      <path
         style="opacity:1;fill:none;fill-opacity:1;stroke:#000000;stroke-width:0.79374999;stroke-linecap:butt;stroke-linejoin:bevel;stroke-miterlimit:4;stroke-dasharray:none;stroke-opacity:1"
         d="m 14.764205,284.87262 a 6.2975385,4.059155 0 0 1 -6.2975383,4.05915 6.2975385,4.059155 0 0 1 -6.2975384,-4.05915 6.2975385,4.059155 0 0 1 6.2975384,-4.05916 6.2975385,4.059155 0 0 1 6.2975383,4.05916 z"
         id="path858"
         inkscape:connector-curvature="0" />
    </clipPath>
  </defs>
  <sodipodi:namedview
     id="base"
     pagecolor="#ffffff"
     bordercolor="#666666"
     borderopacity="1.0"
     inkscape:pageopacity="0.0"
     inkscape:pageshadow="2"
     inkscape:zoom="7.9195959"
     inkscape:cx="33.632822"
     inkscape:cy="34.356964"
     inkscape:document-units="px"
     inkscape:current-layer="g826"
     showgrid="false"
     units="px"
     inkscape:window-width="1594"
     inkscape:window-height="894"
     inkscape:window-x="0"
     inkscape:window-y="0"
     inkscape:window-maximized="1" />
  <metadata
     id="metadata5">
    <rdf:RDF>
      <cc:Work
         rdf:about="">
        <dc:format>image/svg+xml</dc:format>
        <dc:type
           rdf:resource="http://purl.org/dc/dcmitype/StillImage" />
        <dc:title></dc:title>
      </cc:Work>
    </rdf:RDF>
  </metadata>
  <g
     inkscape:label="Layer 1"
     inkscape:groupmode="layer"
     id="layer1"
     transform="translate(0,-280.06665)">
    <g
       id="g826"
       transform="matrix(0.82561304,0,0,0.82561304,1.8488419,50.715349)"
       style="stroke-width:1.21122122">
      <path
         inkscape:connector-curvature="0"
         id="rect860"
         d="m 3.4428098,287.34586 c -0.8628658,0 -1.5576535,0.69478 -1.5576535,1.55765 v 4.82026 c 0,0.86287 0.6947877,1.55765 1.5576535,1.55765 h 9.1456792 c 0.862866,0 1.557654,-0.69478 1.557654,-1.55765 v -4.82026 c 0,-0.86287 -0.694788,-1.55765 -1.557654,-1.55765 z m 4.5728398,1.74586 a 1.2136514,1.2136514 0 0 1 1.2134872,1.21349 1.2136514,1.2136514 0 0 1 -0.6685972,1.084 l 0.7446508,2.14635 H 6.7261087 l 0.7451323,-2.14683 a 1.2136514,1.2136514 0 0 1 -0.6690787,-1.08352 1.2136514,1.2136514 0 0 1 1.2134873,-1.21349 z"
         style="opacity:1;fill:#98c379;fill-opacity:1;stroke:none;stroke-width:0.96140695;stroke-linecap:butt;stroke-linejoin:bevel;stroke-miterlimit:4;stroke-dasharray:none;stroke-opacity:1" />
      <path
         sodipodi:nodetypes="csc"
         inkscape:connector-curvature="0"
         id="path862"
         d="M 4.3124572,286.81645 V 284.759 c 2.2e-6,-1.73358 1.6579772,-3.13893 3.7031922,-3.13893 2.0452146,0 3.7031906,1.40535 3.7031926,3.13893 v 2.05745"
         style="opacity:1;fill:none;fill-opacity:1;stroke:#98c379;stroke-width:1.60234463;stroke-linecap:butt;stroke-linejoin:bevel;stroke-miterlimit:4;stroke-dasharray:none;stroke-opacity:1" />
    </g>
  </g>
</svg>
