<svg width="64" height="64" viewBox="0 0 64 64" fill="none" xmlns="http://www.w3.org/2000/svg">
<rect x="30" y="8" width="4" height="8.93023" rx="2" fill="black"/>
<rect x="30" y="47.0698" width="4" height="8.93023" rx="2" fill="black"/>
<rect x="8" y="34" width="4" height="8.93023" rx="2" transform="rotate(-90 8 34)" fill="black"/>
<rect x="47.0698" y="34" width="4" height="8.93023" rx="2" transform="rotate(-90 47.0698 34)" fill="black"/>
<rect x="50.3848" y="47.5563" width="4" height="8.93023" rx="2" transform="rotate(135 50.3848 47.5563)" fill="black"/>
<rect x="22.7583" y="19.9298" width="4" height="8.93023" rx="2" transform="rotate(135 22.7583 19.9298)" fill="black"/>
<rect x="16.4436" y="50.3848" width="4" height="8.93023" rx="2" transform="rotate(-135 16.4436 50.3848)" fill="black"/>
<rect x="44.0701" y="22.7582" width="4" height="8.93023" rx="2" transform="rotate(-135 44.0701 22.7582)" fill="black"/>
<circle cx="32" cy="32" r="6" fill="black"/>
</svg>
