<svg width="409" height="184" viewBox="0 0 409 184" fill="none" xmlns="http://www.w3.org/2000/svg">
<path d="M204.934 160.625C243.631 160.625 275.002 129.255 275.002 90.5574C275.002 71.2088 267.159 53.6919 254.479 41.0122M204.934 20.4899C166.237 20.4899 134.867 51.8602 134.867 90.5574C134.867 109.906 142.709 127.423 155.389 140.103" stroke="black" stroke-width="20" stroke-linecap="round"/>
<path d="M238.045 21.0276C238.81 21.3879 238.81 22.477 238.045 22.8373L195.849 42.6939C195.186 43.006 194.424 42.5221 194.424 41.7891L194.424 2.07578C194.424 1.34277 195.186 0.858846 195.849 1.17096L238.045 21.0276Z" fill="black"/>
<path d="M171.823 162.972C171.058 162.612 171.058 161.523 171.823 161.163L214.019 141.306C214.682 140.994 215.445 141.478 215.445 142.211L215.445 181.924C215.445 182.657 214.682 183.141 214.019 182.829L171.823 162.972Z" fill="black"/>
<path d="M10.395 95H133.92" stroke="black" stroke-width="20" stroke-linecap="round"/>
<path d="M275.33 92H398.855" stroke="black" stroke-width="20" stroke-linecap="round"/>
</svg>
