<svg width="64" height="65" viewBox="0 0 64 65" fill="none" xmlns="http://www.w3.org/2000/svg">
<rect x="13.0743" y="25.8851" width="37.0811" height="28.8649" rx="6.82758" stroke="black" stroke-width="4"/>
<path d="M41.0743 23.8851V25.8851H45.0743V23.8851H41.0743ZM17.7229 23.8851C17.7229 24.9897 18.6183 25.8851 19.7229 25.8851C20.8275 25.8851 21.7229 24.9897 21.7229 23.8851H17.7229ZM28.5505 10.75H34.2467V6.75H28.5505V10.75ZM41.0743 17.5776V23.8851H45.0743V17.5776H41.0743ZM21.7229 23.8851V17.5776H17.7229V23.8851H21.7229ZM34.2467 10.75C38.0174 10.75 41.0743 13.8068 41.0743 17.5776H45.0743C45.0743 11.5977 40.2266 6.75 34.2467 6.75V10.75ZM28.5505 6.75C22.5706 6.75 17.7229 11.5977 17.7229 17.5776H21.7229C21.7229 13.8068 24.7797 10.75 28.5505 10.75V6.75Z" fill="black"/>
</svg>
