<svg width="64" height="64" viewBox="0 0 64 64" fill="none" xmlns="http://www.w3.org/2000/svg">
<rect x="19" y="27.3513" width="26.8108" height="20.6486" rx="6" stroke="#E8E8E8" stroke-width="4"/>
<path d="M39 25.3514V27.3514H43V25.3514H39ZM21.4865 21.6556C21.4865 22.7601 22.3819 23.6556 23.4865 23.6556C24.5911 23.6556 25.4865 22.7601 25.4865 21.6556H21.4865ZM31.142 16H33V12H31.142V16ZM39 22V25.3514H43V22H39ZM33 16C36.3137 16 39 18.6863 39 22H43C43 16.4772 38.5228 12 33 12V16ZM31.142 12C25.8094 12 21.4865 16.3229 21.4865 21.6556H25.4865C25.4865 18.5321 28.0186 16 31.142 16V12Z" fill="#E8E8E8"/>
</svg>
