<svg width="64" height="65" viewBox="0 0 64 65" fill="none" xmlns="http://www.w3.org/2000/svg">
<path d="M49.9999 32.3784C49.9999 22.2283 41.7716 14 31.6215 14C26.5465 14 21.9519 16.0571 18.6261 19.3829M13.2432 32.3784C13.2432 42.5285 21.4714 50.7568 31.6215 50.7568C36.6966 50.7568 41.2912 48.6997 44.617 45.3739" stroke="black" stroke-width="4" stroke-linecap="round"/>
<path d="M12.7168 25.112C13.0771 24.3463 14.1662 24.3463 14.5264 25.1119L18.5723 33.7094C18.8844 34.3726 18.4005 35.1352 17.6675 35.1352H9.57578C8.84277 35.1352 8.35885 34.3726 8.67096 33.7094L12.7168 25.112Z" fill="black"/>
<path d="M51.2832 39.6448C50.9229 40.4104 49.8338 40.4104 49.4736 39.6448L45.4277 31.0474C45.1156 30.3841 45.5995 29.6216 46.3325 29.6216L54.4242 29.6216C55.1572 29.6216 55.6412 30.3841 55.329 31.0474L51.2832 39.6448Z" fill="black"/>
</svg>
