<svg width="64" height="64" viewBox="0 0 64 64" fill="none" xmlns="http://www.w3.org/2000/svg">
<path d="M47 32.3153C47 23.8569 40.1431 17 31.6847 17C27.4555 17 23.6267 18.7142 20.8551 21.4858M16.3694 32.3153C16.3694 40.7737 23.2263 47.6306 31.6847 47.6306C35.9139 47.6306 39.7427 45.9164 42.5143 43.1449" stroke="black" stroke-width="4" stroke-linecap="round"/>
<path d="M15.7799 26.5804C16.1402 25.8148 17.2292 25.8148 17.5895 26.5804L20.6984 33.1868C21.0105 33.8501 20.5266 34.6126 19.7936 34.6126H13.5758C12.8428 34.6126 12.3588 33.8501 12.671 33.1868L15.7799 26.5804Z" fill="black"/>
<path d="M48.2201 38.0502C47.8598 38.8158 46.7708 38.8158 46.4105 38.0502L43.3016 31.4438C42.9895 30.7806 43.4734 30.018 44.2064 30.018L50.4242 30.018C51.1572 30.018 51.6412 30.7806 51.329 31.4438L48.2201 38.0502Z" fill="black"/>
</svg>
