<svg width="65" height="65" viewBox="0 0 65 65" fill="none" xmlns="http://www.w3.org/2000/svg">
<rect x="30.5" y="30.2714" width="4" height="28.2286" rx="2" fill="black"/>
<ellipse cx="32.5" cy="30.2714" rx="6" ry="5.94286" fill="black"/>
<path d="M21.9118 40.7953C19.1865 38.1052 17.5 34.3834 17.5 30.2715C17.5 22.0661 24.2157 15.4143 32.5 15.4143C40.7843 15.4143 47.5 22.0661 47.5 30.2715C47.5 34.3834 45.8135 38.1052 43.0882 40.7953" stroke="black" stroke-width="4" stroke-linecap="round"/>
<path d="M15.5589 47.1095C11.1985 42.8055 8.5 36.8506 8.5 30.2714C8.5 17.1428 19.2452 6.5 32.5 6.5C45.7548 6.5 56.5 17.1428 56.5 30.2714C56.5 36.8506 53.8015 42.8055 49.4411 47.1095" stroke="black" stroke-width="4" stroke-linecap="round"/>
</svg>
