<svg width="64" height="65" viewBox="0 0 64 65" fill="none" xmlns="http://www.w3.org/2000/svg">
<rect x="13.8649" y="25.6351" width="37.0811" height="28.8649" rx="8.66666" stroke="black" stroke-width="4"/>
<path d="M41.8649 23.6351V25.6351H45.8649V23.6351H41.8649ZM18.5316 17.1708C18.5339 18.2754 19.4312 19.169 20.5357 19.1667C21.6403 19.1644 22.5339 18.2671 22.5316 17.1625L18.5316 17.1708ZM29.1802 10.5H33.1982V6.5H29.1802V10.5ZM41.8649 19.1667V23.6351H45.8649V19.1667H41.8649ZM33.1982 10.5C37.9847 10.5 41.8649 14.3802 41.8649 19.1667H45.8649C45.8649 12.1711 40.1938 6.5 33.1982 6.5V10.5ZM29.1802 6.5C23.2905 6.5 18.5193 11.2811 18.5316 17.1708L22.5316 17.1625C22.5239 13.4851 25.5029 10.5 29.1802 10.5V6.5Z" fill="black"/>
</svg>
