<?xml version="1.0" encoding="UTF-8" standalone="no"?>
<!-- Created with Inkscape (http://www.inkscape.org/) -->

<svg
   width="1920"
   height="1080"
   viewBox="0 0 507.99999 285.75001"
   version="1.1"
   id="svg5"
   inkscape:version="1.2 (dc2aedaf03, 2022-05-15)"
   sodipodi:docname="wallpaper.svg"
   inkscape:export-filename="wallpaper.png"
   inkscape:export-xdpi="96"
   inkscape:export-ydpi="96"
   xmlns:inkscape="http://www.inkscape.org/namespaces/inkscape"
   xmlns:sodipodi="http://sodipodi.sourceforge.net/DTD/sodipodi-0.dtd"
   xmlns="http://www.w3.org/2000/svg"
   xmlns:svg="http://www.w3.org/2000/svg">
  <sodipodi:namedview
     id="namedview7"
     pagecolor="#505050"
     bordercolor="#ffffff"
     borderopacity="1"
     inkscape:pageshadow="0"
     inkscape:pageopacity="0"
     inkscape:pagecheckerboard="1"
     inkscape:document-units="px"
     showgrid="false"
     units="px"
     inkscape:zoom="0.47939728"
     inkscape:cx="793.70497"
     inkscape:cy="651.86019"
     inkscape:window-width="1896"
     inkscape:window-height="1006"
     inkscape:window-x="10"
     inkscape:window-y="60"
     inkscape:window-maximized="0"
     inkscape:current-layer="svg5"
     inkscape:showpageshadow="0"
     inkscape:deskcolor="#505050"
     showguides="true" />
  <defs
     id="defs2" />
  <rect
     style="fill:#101012;fill-opacity:1;stroke:none;stroke-width:6.7369;stroke-linecap:round;stroke-linejoin:round;stroke-dasharray:none;stroke-dashoffset:0;stroke-opacity:1"
     id="rect1946"
     width="508"
     height="285.75"
     x="-3.5527137e-15"
     y="-3.5527137e-15"
     sodipodi:insensitive="true"
     inkscape:label="bg" />
  <g
     id="g2013"
     transform="matrix(0.21461978,0,0,0.21461978,199.48669,112.23688)"
     inkscape:label="colors">
    <path
       id="path1842"
       style="fill:#dbb671;fill-opacity:1;stroke:none;stroke-width:2.64583;stroke-linecap:round;stroke-linejoin:round;stroke-dasharray:none;stroke-dashoffset:0;stroke-opacity:1"
       d="m 207.06953,168.3396 44.28567,-25.56795 -44.28515,-25.56847 a 53.475803,53.475803 0 0 0 -6.54637,25.56847 53.475803,53.475803 0 0 0 6.54585,25.56795 z"
       inkscape:label="yellow" />
    <path
       id="path1875"
       style="fill:#51a8b3;fill-opacity:1;stroke:none;stroke-width:2.64583;stroke-linecap:round;stroke-linejoin:round;stroke-dasharray:none;stroke-dashoffset:0;stroke-opacity:1"
       d="m 252.6776,145.06143 -44.28567,25.56795 a 53.475803,53.475803 0 0 0 44.28567,25.56846 z"
       inkscape:label="cyan" />
    <path
       id="path1877"
       style="fill:#de5d68;fill-opacity:1;stroke:none;stroke-width:2.64583;stroke-linecap:round;stroke-linejoin:round;stroke-dasharray:none;stroke-dashoffset:0;stroke-opacity:1"
       d="m 255.32189,196.19784 a 53.475803,53.475803 0 0 0 44.28515,-25.56846 l -44.28515,-25.56795 z"
       inkscape:label="red"
       transform="translate(-6.4766641e-7)" />
    <path
       id="path1891"
       style="fill:#57a5e5;fill-opacity:1;stroke:none;stroke-width:2.64583;stroke-linecap:round;stroke-linejoin:round;stroke-dasharray:none;stroke-dashoffset:0;stroke-opacity:1"
       d="m 300.95476,117.18871 -44.31047,25.58294 44.28515,25.56795 a 53.475803,53.475803 0 0 0 6.54585,-25.56795 53.475803,53.475803 0 0 0 -6.52053,-25.58294 z"
       inkscape:label="blue"
       transform="translate(-6.4766641e-7)" />
    <path
       id="path1889"
       style="fill:#8fb573;fill-opacity:1;stroke:none;stroke-width:2.64583;stroke-linecap:round;stroke-linejoin:round;stroke-dasharray:none;stroke-dashoffset:0;stroke-opacity:1"
       d="m 255.32189,140.48135 44.31047,-25.58294 A 53.475803,53.475803 0 0 0 255.32189,89.312895 Z"
       inkscape:label="green"
       transform="translate(-6.4766641e-7)" />
    <path
       id="path1859"
       style="fill:#bb70d2;fill-opacity:1;stroke:none;stroke-width:2.64583;stroke-linecap:round;stroke-linejoin:round;stroke-dasharray:none;stroke-dashoffset:0;stroke-opacity:1"
       d="M 252.6776,89.345452 A 53.475803,53.475803 0 0 0 208.39245,114.9134 l 44.28515,25.56795 z"
       inkscape:label="purple" />
  </g>
</svg>
