<svg width="267" height="94" viewBox="0 0 267 94" fill="none" xmlns="http://www.w3.org/2000/svg">
<path d="M151.785 5.20411C174.869 5.20411 193.581 23.9168 193.581 47C193.581 70.0832 174.869 88.7959 151.785 88.7959" stroke="black" stroke-width="10.1667" stroke-linecap="round"/>
<path d="M68.1938 47.0001L5.50001 47.0001" stroke="black" stroke-width="10.1667" stroke-linecap="round"/>
<path d="M261.5 47.0001L198.806 47.0001" stroke="black" stroke-width="10.1667" stroke-linecap="round"/>
<path d="M109.99 88.796C86.9065 88.796 68.1938 70.0834 68.1938 47.0001C68.1938 23.9169 86.9065 5.20422 109.99 5.20422" stroke="black" stroke-width="10.1667" stroke-linecap="round"/>
<path d="M152.104 65.859L134.179 49.7637C133.793 49.4167 133.207 49.4167 132.821 49.7637L114.896 65.859" stroke="black" stroke-width="10.1667" stroke-linecap="round"/>
<path d="M152.104 45.4708L134.179 29.3754C133.793 29.0285 133.207 29.0285 132.821 29.3754L114.896 45.4708" stroke="black" stroke-width="10.1667" stroke-linecap="round"/>
</svg>
