<svg width="267" height="94" viewBox="0 0 267 94" fill="none" xmlns="http://www.w3.org/2000/svg">
<path d="M151.785 5.20392C174.869 5.20392 193.581 23.9166 193.581 46.9998C193.581 70.0831 174.869 88.7957 151.785 88.7957" stroke="black" stroke-width="10.1941" stroke-linecap="round"/>
<path d="M68.1941 46.9999L5.50025 46.9999" stroke="black" stroke-width="10.1941" stroke-linecap="round"/>
<path d="M261.5 46.9999L198.806 46.9999" stroke="black" stroke-width="10.1941" stroke-linecap="round"/>
<path d="M109.99 88.796C86.9068 88.796 68.1941 70.0834 68.1941 47.0001C68.1941 23.9169 86.9068 5.20422 109.99 5.20422" stroke="black" stroke-width="10.1941" stroke-linecap="round"/>
<path d="M114.832 28.7655L132.755 44.8593C133.143 45.2071 133.73 45.2071 134.117 44.8593L152.041 28.7655" stroke="black" stroke-width="10.1941" stroke-linecap="round"/>
<path d="M114.832 49.1539L132.755 65.2476C133.143 65.5955 133.73 65.5955 134.117 65.2476L152.041 49.1539" stroke="black" stroke-width="10.1941" stroke-linecap="round"/>
</svg>
