<?xml version="1.0" encoding="UTF-8" standalone="no"?>
<!-- Created with Inkscape (http://www.inkscape.org/) -->

<svg
   xmlns:dc="http://purl.org/dc/elements/1.1/"
   xmlns:cc="http://creativecommons.org/ns#"
   xmlns:rdf="http://www.w3.org/1999/02/22-rdf-syntax-ns#"
   xmlns:svg="http://www.w3.org/2000/svg"
   xmlns="http://www.w3.org/2000/svg"
   xmlns:sodipodi="http://sodipodi.sourceforge.net/DTD/sodipodi-0.dtd"
   xmlns:inkscape="http://www.inkscape.org/namespaces/inkscape"
   width="64"
   height="64"
   viewBox="0 0 16.933333 16.933334"
   version="1.1"
   id="svg8"
   inkscape:version="0.92.4 (5da689c313, 2019-01-14)"
   sodipodi:docname="flameshot.svg">
  <defs
     id="defs2" />
  <sodipodi:namedview
     id="base"
     pagecolor="#ffffff"
     bordercolor="#666666"
     borderopacity="1.0"
     inkscape:pageopacity="0.0"
     inkscape:pageshadow="2"
     inkscape:zoom="5.6"
     inkscape:cx="24.398436"
     inkscape:cy="46.618403"
     inkscape:document-units="px"
     inkscape:current-layer="layer1"
     showgrid="false"
     units="px"
     inkscape:window-width="1574"
     inkscape:window-height="874"
     inkscape:window-x="10"
     inkscape:window-y="10"
     inkscape:window-maximized="0" />
  <metadata
     id="metadata5">
    <rdf:RDF>
      <cc:Work
         rdf:about="">
        <dc:format>image/svg+xml</dc:format>
        <dc:type
           rdf:resource="http://purl.org/dc/dcmitype/StillImage" />
        <dc:title />
      </cc:Work>
    </rdf:RDF>
  </metadata>
  <g
     inkscape:label="Layer 1"
     inkscape:groupmode="layer"
     id="layer1"
     transform="translate(0,-280.06665)">
    <circle
       style="opacity:1;fill:#c678dd;fill-opacity:1;stroke:#000000;stroke-width:0.5291667;stroke-linecap:square;stroke-linejoin:miter;stroke-miterlimit:4;stroke-dasharray:none;stroke-opacity:1"
       id="path834"
       cx="8.4666662"
       cy="288.53333"
       r="7.9375" />
    <path
       style="fill:#e5c07b;fill-opacity:1;stroke:#000000;stroke-width:0.5291667;stroke-linecap:butt;stroke-linejoin:miter;stroke-miterlimit:4;stroke-dasharray:none;stroke-opacity:1"
       d="m 10.247558,282.55634 c 0,0 0.516453,4.71116 -3.0341992,5.93735 -3.5506462,1.22619 -3.3569749,5.29199 -3.3569749,5.29199 0,0 -1.9367193,-6.9054 0.6455761,-8.45428 2.5822895,-1.54887 3.4215277,1.03259 5.745598,-2.77506 z"
       id="path840"
       inkscape:connector-curvature="0" />
    <path
       inkscape:connector-curvature="0"
       id="path842"
       d="m 12.937091,284.59259 c 0,0 -0.720886,4.68426 -4.4680067,4.94999 -3.7471355,0.26574 -4.6127004,4.2431 -4.6127004,4.2431 0,0 -0.082907,-7.17119 2.8124063,-7.99916 2.8953073,-0.82797 3.0376068,1.88267 6.2683008,-1.19393 z"
       style="fill:#e5a17b;fill-opacity:1;stroke:#000000;stroke-width:0.5291667;stroke-linecap:butt;stroke-linejoin:miter;stroke-miterlimit:4;stroke-dasharray:none;stroke-opacity:1" />
    <path
       style="fill:#e06c75;fill-opacity:1;stroke:#000000;stroke-width:0.5291667;stroke-linecap:butt;stroke-linejoin:miter;stroke-miterlimit:4;stroke-dasharray:none;stroke-opacity:1"
       d="m 15.007792,287.25534 c 0,0 -1.909089,4.33813 -5.597328,3.62528 -3.6882581,-0.71283 -5.5540801,2.90506 -5.5540801,2.90506 0,0 1.7765575,-6.94829 4.7875856,-6.99893 3.0110195,-0.0506 2.4466645,2.60447 6.3638225,0.46859 z"
       id="path844"
       inkscape:connector-curvature="0" />
  </g>
</svg>
