<?xml version="1.0" encoding="UTF-8" standalone="no"?>
<!-- Created with Inkscape (http://www.inkscape.org/) -->

<svg
   width="64"
   height="64"
   viewBox="0 0 16.933333 16.933333"
   version="1.1"
   id="svg5"
   inkscape:version="1.1 (c4e8f9ed74, 2021-05-24)"
   sodipodi:docname="inkscape.svg"
   xmlns:inkscape="http://www.inkscape.org/namespaces/inkscape"
   xmlns:sodipodi="http://sodipodi.sourceforge.net/DTD/sodipodi-0.dtd"
   xmlns="http://www.w3.org/2000/svg"
   xmlns:svg="http://www.w3.org/2000/svg">
  <sodipodi:namedview
     id="namedview7"
     pagecolor="#505050"
     bordercolor="#eeeeee"
     borderopacity="1"
     inkscape:pageshadow="0"
     inkscape:pageopacity="0"
     inkscape:pagecheckerboard="0"
     inkscape:document-units="px"
     showgrid="false"
     units="px"
     width="64px"
     inkscape:zoom="8.5626212"
     inkscape:cx="21.780714"
     inkscape:cy="21.430354"
     inkscape:window-width="1896"
     inkscape:window-height="1006"
     inkscape:window-x="10"
     inkscape:window-y="60"
     inkscape:window-maximized="0"
     inkscape:current-layer="layer1" />
  <defs
     id="defs2" />
  <g
     inkscape:label="Layer 1"
     inkscape:groupmode="layer"
     id="layer1">
    <g
       id="g6505"
       transform="matrix(1.1085886,0,0,1.1085886,-1.1257444,-1.1198576)">
      <path
         id="path940"
         style="opacity:1;fill:#282c34;fill-opacity:1;stroke:#abb2bf;stroke-width:4.32928;stroke-linecap:round;stroke-linejoin:round;stroke-miterlimit:4;stroke-dasharray:none;paint-order:stroke fill markers"
         inkscape:transform-center-y="-1.2181355"
         transform="matrix(0.36991791,0,0,0.25242289,-0.88508845,0.9332813)"
         d="M 42.493762,32.369641 C 43.866426,30.087456 37.432593,19.307671 36.100993,17.001284 34.735878,14.636846 28.506578,3.4638737 25.776795,3.4150047 23.114031,3.3673353 16.995381,14.32909 15.663791,16.635483 14.298685,18.999927 7.7372573,29.981145 9.0598272,32.369641 l 7.7381998,0.518078 c 0,0 -8.9559573,4.954113 2.439581,9.267958 11.395538,4.313844 -4.055711,6.535445 3.193573,11.369951 7.249284,4.83451 7.933438,4.146914 7.933438,4.146914 v 0 c 0,0 -4.898475,-9.223419 1.619846,-8.459954 6.518319,0.763465 14.040583,-2.120331 1.318755,-8.803132 -10.72366,-5.633158 0.981999,-6.878776 0.981999,-6.878776 z"
         sodipodi:nodetypes="csssccssccsscc" />
      <path
         id="path5188"
         style="opacity:1;fill:#abb2bf;fill-opacity:1;stroke:none;stroke-width:6.55107;stroke-linecap:round;stroke-linejoin:round;stroke-miterlimit:4;stroke-dasharray:none"
         inkscape:transform-center-y="-0.52667922"
         d="m 32.521484,9.2089844 c -2.461376,0.034333 -6.362735,4.1363376 -7.59375,5.4335936 -1.19005,1.254088 -4.977213,5.272602 -3.740234,6.509766 0.698773,0.698877 3.340063,1.016705 5.994141,1.162109 0.486846,-0.612646 0.996152,-1.252452 1.001953,-1.259765 0.0101,-0.01273 1.732948,-2.198586 1.740234,-2.195313 0.0073,0.0033 -0.481563,2.743761 -0.484375,2.759766 -7.89e-4,0.0045 -0.08063,0.463219 -0.134765,0.77539 1.403755,0.03682 2.666235,0.04297 3.416015,0.04297 0.249056,0 0.583365,-0.0022 0.933594,-0.0039 0.501966,-0.522954 1.389942,-1.447571 1.410156,-1.449219 0.02349,-0.0019 1.933718,1.082953 2.414063,1.355469 0.565633,-0.02651 1.133601,-0.06394 1.691406,-0.107422 -0.106893,-0.745442 -0.310452,-2.157798 -0.304688,-2.160156 0.0067,-0.0028 1.265795,1.706481 1.517578,2.048828 1.663334,-0.186723 3.037853,-0.485284 3.472657,-0.96875 1.181818,-1.314083 -2.706491,-5.421493 -3.9375,-6.71875 -1.190046,-1.25409 -5.017014,-5.2577996 -7.396485,-5.2246096 z"
         transform="scale(0.26458333)" />
      <ellipse
         style="opacity:1;fill:#abb2bf;fill-opacity:1;stroke:none;stroke-width:0.996554;stroke-linecap:round;stroke-linejoin:round;stroke-miterlimit:4;stroke-dasharray:none;stroke-opacity:1"
         id="path6331"
         cx="12.907559"
         cy="5.5907722"
         rx="0.33030421"
         ry="0.48249385"
         transform="rotate(45)" />
      <ellipse
         style="opacity:1;fill:#abb2bf;fill-opacity:1;stroke:none;stroke-width:0.508185;stroke-linecap:round;stroke-linejoin:round;stroke-miterlimit:4;stroke-dasharray:none;stroke-opacity:1"
         id="ellipse6444"
         cx="10.680409"
         cy="-16.979668"
         rx="0.16843593"
         ry="0.24604379"
         transform="rotate(105)" />
      <ellipse
         style="opacity:1;fill:#abb2bf;fill-opacity:1;stroke:none;stroke-width:1.28478;stroke-linecap:round;stroke-linejoin:round;stroke-miterlimit:4;stroke-dasharray:none;stroke-opacity:1"
         id="ellipse6446"
         cx="-3.1161284"
         cy="19.852896"
         rx="0.44952548"
         ry="0.58925372"
         transform="matrix(0.42068474,-0.90720689,0.81198323,0.58368077,0,0)" />
    </g>
    <ellipse
       style="fill:#abb2bf;fill-opacity:1;stroke:none;stroke-width:0.31149;stroke-linecap:round;stroke-linejoin:round"
       id="path1421"
       cx="8.9699469"
       cy="8.7281151"
       rx="1.2713013"
       ry="0.31636074"
       transform="matrix(0.98002539,0.1988724,-0.20830778,0.97806333,0,0)" />
  </g>
</svg>
