<?xml version="1.0" encoding="UTF-8" standalone="no"?>
<!-- Created with Inkscape (http://www.inkscape.org/) -->

<svg
   width="64"
   height="64"
   viewBox="0 0 16.933333 16.933334"
   version="1.1"
   id="svg8"
   inkscape:version="1.1 (c4e8f9ed74, 2021-05-24)"
   sodipodi:docname="simplescreenrecorder.svg"
   xmlns:inkscape="http://www.inkscape.org/namespaces/inkscape"
   xmlns:sodipodi="http://sodipodi.sourceforge.net/DTD/sodipodi-0.dtd"
   xmlns="http://www.w3.org/2000/svg"
   xmlns:svg="http://www.w3.org/2000/svg"
   xmlns:rdf="http://www.w3.org/1999/02/22-rdf-syntax-ns#"
   xmlns:cc="http://creativecommons.org/ns#"
   xmlns:dc="http://purl.org/dc/elements/1.1/">
  <defs
     id="defs2" />
  <sodipodi:namedview
     id="base"
     pagecolor="#ffffff"
     bordercolor="#666666"
     borderopacity="1.0"
     inkscape:pageopacity="0.0"
     inkscape:pageshadow="2"
     inkscape:zoom="7.919596"
     inkscape:cx="32.766823"
     inkscape:cy="38.448931"
     inkscape:document-units="px"
     inkscape:current-layer="g1005"
     showgrid="false"
     units="px"
     inkscape:window-width="1896"
     inkscape:window-height="1006"
     inkscape:window-x="10"
     inkscape:window-y="60"
     inkscape:window-maximized="0"
     showguides="false"
     inkscape:pagecheckerboard="0" />
  <metadata
     id="metadata5">
    <rdf:RDF>
      <cc:Work
         rdf:about="">
        <dc:format>image/svg+xml</dc:format>
        <dc:type
           rdf:resource="http://purl.org/dc/dcmitype/StillImage" />
        <dc:title />
      </cc:Work>
    </rdf:RDF>
  </metadata>
  <g
     inkscape:label="Layer 1"
     inkscape:groupmode="layer"
     id="layer1"
     transform="translate(0,-280.06665)">
    <g
       id="g1005"
       inkscape:label="lens"
       transform="matrix(1.940446,0,0,1.9404083,-7.962658,-272.67126)"
       style="stroke-width:0.895232">
      <g
         inkscape:label="lens-outer"
         id="g997"
         style="fill:#abb2bf;stroke:#282c34;stroke-width:0.895232">
        <path
           style="display:inline;opacity:1;fill:#abb2bf;fill-opacity:1;stroke:#282c34;stroke-width:1.79046;stroke-linecap:round;stroke-linejoin:round;stroke-miterlimit:4;stroke-dasharray:none;stroke-opacity:1"
           d="m 32,19.460938 c -0.02242,0 -0.04401,0.0038 -0.06641,0.0039 -2.61192,3.513992 -4.42996,6.688843 -5.433594,9.728515 C 33.307303,26.891899 39.42904,28.641677 47.17773,34.638666 47.177738,26.255755 40.382897,19.460938 32,19.460938 Z"
           id="circle960"
           inkscape:connector-curvature="0"
           sodipodi:nodetypes="scccs"
           inkscape:label="top"
           transform="matrix(0.26458334,0,0,0.26458334,0,280.06665)" />
        <path
           style="opacity:1;fill:#abb2bf;fill-opacity:1;stroke:#282c34;stroke-width:1.79046;stroke-linecap:round;stroke-linejoin:round;stroke-miterlimit:4;stroke-dasharray:none;stroke-opacity:1"
           d="M 37.404291,40.203122 C 30.726453,42.361738 24.613244,40.451304 16.82226,34.638669 l 6e-6,3e-6 C 16.82226,43.021588 23.617102,49.818359 32,49.818359 Z"
           id="path963"
           inkscape:connector-curvature="0"
           inkscape:label="bottom"
           sodipodi:nodetypes="ccccc"
           transform="matrix(0.26458334,0,0,0.26458334,0,280.06665)" />
        <path
           style="display:inline;opacity:1;fill:#abb2bf;fill-opacity:1;stroke:#282c34;stroke-width:1.79046;stroke-linecap:round;stroke-linejoin:round;stroke-miterlimit:4;stroke-dasharray:none;stroke-opacity:1"
           d="m 32,19.371094 c -8.382918,-3.8e-5 -15.177734,6.794855 -15.177734,15.177734 0,0.03162 0.0037,0.06218 0.0039,0.09375 3.485348,2.599866 6.633759,4.412771 9.648437,5.435547 C 24.252585,33.352359 26.151764,27.209792 32,19.371094 Z"
           id="path965"
           inkscape:connector-curvature="0"
           transform="matrix(0.26458334,0,0,0.26458334,0,280.06665)"
           inkscape:label="left" />
        <path
           style="display:inline;opacity:1;fill:#abb2bf;fill-opacity:1;stroke:#282c34;stroke-width:0.473727;stroke-linecap:round;stroke-linejoin:round;stroke-miterlimit:4;stroke-dasharray:none;stroke-opacity:1"
           d="m 9.939151,287.77578 c 0.572772,1.76809 0.067622,3.38668 -1.4712281,5.44928 2.2103101,1e-5 4.0023651,-1.78616 4.0147421,-3.99355 -0.915513,-0.70841 -1.745163,-1.19093 -2.543514,-1.45573 z"
           id="path967"
           inkscape:connector-curvature="0"
           inkscape:label="right"
           sodipodi:nodetypes="cccc" />
      </g>
      <circle
         inkscape:label="lens-inner"
         r="0.94494051"
         cy="289.21985"
         cx="8.4667778"
         id="path991"
         style="opacity:1;fill:#abb2bf;fill-opacity:1;stroke:#282c34;stroke-width:0.473727;stroke-linecap:round;stroke-linejoin:round;stroke-miterlimit:4;stroke-dasharray:none;stroke-opacity:1" />
    </g>
  </g>
</svg>
