<?xml version="1.0" encoding="UTF-8" standalone="no"?>
<!-- Created with Inkscape (http://www.inkscape.org/) -->

<svg
   xmlns:dc="http://purl.org/dc/elements/1.1/"
   xmlns:cc="http://creativecommons.org/ns#"
   xmlns:rdf="http://www.w3.org/1999/02/22-rdf-syntax-ns#"
   xmlns:svg="http://www.w3.org/2000/svg"
   xmlns="http://www.w3.org/2000/svg"
   xmlns:sodipodi="http://sodipodi.sourceforge.net/DTD/sodipodi-0.dtd"
   xmlns:inkscape="http://www.inkscape.org/namespaces/inkscape"
   width="64"
   height="64"
   viewBox="0 0 16.933333 16.933334"
   version="1.1"
   id="svg8"
   inkscape:version="0.92.4 (5da689c313, 2019-01-14)"
   sodipodi:docname="icon.svg">
  <defs
     id="defs2" />
  <sodipodi:namedview
     id="base"
     pagecolor="#ffffff"
     bordercolor="#666666"
     borderopacity="1.0"
     inkscape:pageopacity="0.0"
     inkscape:pageshadow="2"
     inkscape:zoom="32"
     inkscape:cx="32.056356"
     inkscape:cy="15.870809"
     inkscape:document-units="px"
     inkscape:current-layer="layer1"
     showgrid="false"
     units="px"
     inkscape:window-width="1574"
     inkscape:window-height="874"
     inkscape:window-x="10"
     inkscape:window-y="10"
     inkscape:window-maximized="0"
     showguides="true"
     inkscape:guide-bbox="true" />
  <metadata
     id="metadata5">
    <rdf:RDF>
      <cc:Work
         rdf:about="">
        <dc:format>image/svg+xml</dc:format>
        <dc:type
           rdf:resource="http://purl.org/dc/dcmitype/StillImage" />
        <dc:title />
      </cc:Work>
    </rdf:RDF>
  </metadata>
  <g
     inkscape:label="Layer 1"
     inkscape:groupmode="layer"
     id="layer1"
     transform="translate(0,-280.06665)">
    <path
       style="opacity:1;fill:#c678dd;fill-opacity:1;stroke:none;stroke-width:0.5;stroke-linecap:round;stroke-linejoin:round;stroke-miterlimit:4;stroke-dasharray:none;stroke-opacity:1"
       d="m 31.231356,55.780635 c -2.15677,-0.06267 -4.102183,-0.487235 -4.925893,-1.075022 -0.110763,-0.07904 -0.236164,-0.196259 -0.27867,-0.260489 l -0.07728,-0.116783 0.0081,-1.532353 0.0081,-1.532353 0.265455,0.152165 c 0.789953,0.452821 2.006773,0.757313 3.81267,0.954067 0.744993,0.08117 3.15113,0.08089 3.921875,-4.44e-4 1.115835,-0.117757 2.074868,-0.29847 2.78635,-0.525038 0.385267,-0.122686 0.977368,-0.38546 1.190212,-0.528214 l 0.101563,-0.06812 -1.17e-4,1.542131 c -1.25e-4,1.471318 -0.0029,1.546699 -0.06077,1.641596 -0.200926,0.329525 -0.972635,0.698439 -1.976587,0.944902 -1.314918,0.322802 -2.913554,0.458042 -4.775031,0.403953 z"
       id="path937"
       inkscape:connector-curvature="0"
       transform="matrix(0.26458334,0,0,0.26458334,0,280.06665)" />
    <path
       style="opacity:1;fill:#c678dd;fill-opacity:1;stroke:none;stroke-width:0.5;stroke-linecap:round;stroke-linejoin:round;stroke-miterlimit:4;stroke-dasharray:none;stroke-opacity:1"
       d="m 31.231356,51.905635 c -2.155321,-0.06263 -4.102244,-0.487279 -4.924649,-1.074134 -0.110079,-0.07855 -0.235346,-0.194626 -0.278372,-0.257944 l -0.07823,-0.115125 v -1.602121 c 0,-0.881166 0.0084,-1.60212 0.01861,-1.60212 0.01024,0 0.05594,0.02638 0.101563,0.05863 0.167881,0.118655 0.665384,0.348868 1.00991,0.467323 2.49615,0.858228 7.062107,0.888085 9.642792,0.06305 0.476315,-0.152275 0.872236,-0.32123 1.111668,-0.474393 0.09854,-0.06304 0.185926,-0.114612 0.194186,-0.114612 0.0083,0 0.01496,0.720703 0.0149,1.601562 -1.25e-4,1.530144 -0.0028,1.605998 -0.06077,1.701027 -0.200926,0.329525 -0.972635,0.698439 -1.976587,0.944902 -1.314918,0.322802 -2.913554,0.458042 -4.775031,0.403953 z"
       id="path935"
       inkscape:connector-curvature="0"
       transform="matrix(0.26458334,0,0,0.26458334,0,280.06665)" />
    <path
       style="opacity:1;fill:#c678dd;fill-opacity:1;stroke:none;stroke-width:0.5;stroke-linecap:round;stroke-linejoin:round;stroke-miterlimit:4;stroke-dasharray:none;stroke-opacity:1"
       d="m 30.621981,47.876509 c -1.043156,-0.06923 -2.15921,-0.243274 -2.90625,-0.453214 -0.802901,-0.225638 -1.465668,-0.555752 -1.674434,-0.834009 l -0.07557,-0.10072 -0.0087,-1.429362 -0.0087,-1.429362 0.118095,0.08081 c 1.343292,0.919155 5.043144,1.372137 8.258721,1.011133 1.003734,-0.112686 2.026196,-0.329601 2.688206,-0.570301 0.30569,-0.111146 0.763243,-0.328489 0.910368,-0.432436 0.04562,-0.03223 0.09133,-0.05861 0.101562,-0.05861 0.01024,0 0.01861,0.630702 0.01861,1.401561 v 1.401561 l -0.09078,0.125311 c -0.106274,0.146707 -0.434624,0.373243 -0.738816,0.509725 -0.876004,0.393036 -2.284829,0.674284 -3.904251,0.779416 -0.566208,0.03676 -2.124633,0.03589 -2.688033,-0.0015 z"
       id="path933"
       inkscape:connector-curvature="0"
       transform="matrix(0.26458334,0,0,0.26458334,0,280.06665)" />
    <g
       id="g931"
       transform="translate(-0.03089525)"
       style="stroke-width:0.13229167;stroke-miterlimit:4;stroke-dasharray:none">
      <path
         inkscape:connector-curvature="0"
         id="path919"
         d="m 10.169667,294.41557 v -3.03344"
         style="fill:none;stroke:#000000;stroke-width:0.13229167;stroke-linecap:round;stroke-linejoin:round;stroke-miterlimit:4;stroke-dasharray:none;stroke-opacity:1" />
      <path
         inkscape:connector-curvature="0"
         id="path917"
         d="m 6.825457,294.41557 v -3.03344"
         style="fill:none;stroke:#000000;stroke-width:0.13229167;stroke-linecap:round;stroke-linejoin:round;stroke-miterlimit:4;stroke-dasharray:none;stroke-opacity:1" />
    </g>
    <path
       style="opacity:1;fill:none;fill-opacity:1;stroke:#080202;stroke-width:0.13229167;stroke-linecap:round;stroke-linejoin:round;stroke-miterlimit:4;stroke-dasharray:none;stroke-opacity:1"
       d="m 10.138772,294.41557 c 0,0.26884 -0.745759,0.48526 -1.6721052,0.48526 -0.9263463,0 -1.6721051,-0.21642 -1.6721051,-0.48526"
       id="rect895-3"
       inkscape:connector-curvature="0"
       sodipodi:nodetypes="csc" />
    <path
       sodipodi:nodetypes="csc"
       inkscape:connector-curvature="0"
       id="path913"
       d="m 10.138772,293.3903 c 0,0.26884 -0.745759,0.48526 -1.6721052,0.48526 -0.9263463,0 -1.6721051,-0.21642 -1.6721051,-0.48526"
       style="opacity:1;fill:none;fill-opacity:1;stroke:#080202;stroke-width:0.13229167;stroke-linecap:round;stroke-linejoin:round;stroke-miterlimit:4;stroke-dasharray:none;stroke-opacity:1" />
    <path
       style="opacity:1;fill:none;fill-opacity:1;stroke:#080202;stroke-width:0.13229167;stroke-linecap:round;stroke-linejoin:round;stroke-miterlimit:4;stroke-dasharray:none;stroke-opacity:1"
       d="m 10.138772,292.32991 c 0,0.26884 -0.745759,0.48526 -1.6721052,0.48526 -0.9263463,0 -1.6721051,-0.21642 -1.6721051,-0.48526"
       id="path915"
       inkscape:connector-curvature="0"
       sodipodi:nodetypes="csc" />
    <rect
       style="opacity:1;fill:#c678dd;fill-opacity:1;stroke:#080202;stroke-width:0.13229167;stroke-linecap:round;stroke-linejoin:round;stroke-miterlimit:4;stroke-dasharray:none;stroke-opacity:1"
       id="rect895"
       width="3.3442101"
       height="0.97052246"
       x="6.7945619"
       y="290.89297"
       ry="0.48526123"
       rx="1.6721051" />
  </g>
</svg>
